<?xml version="1.0" standalone="no"?>
<svg version="1.0" xmlns="http://www.w3.org/2000/svg"
width="25" height="25" viewBox="0 0 512.000000 512.000000"
preserveAspectRatio="xMidYMid meet">

<g transform="translate(0.000000,512.000000) scale(0.100000,-0.100000)"
fill="#FFFFFF" stroke="none">
<path d="M2370 5114 c-426 -49 -683 -124 -1010 -295 -457 -239 -852 -645
-1089 -1116 -125 -250 -201 -492 -247 -793 -25 -160 -25 -538 0 -700 87 -564
315 -1029 700 -1427 360 -373 829 -632 1315 -727 230 -46 280 -50 521 -50 241
0 291 4 521 50 745 145 1418 664 1768 1361 305 608 353 1308 136 1958 -97 289
-297 642 -481 844 -20 23 -34 47 -31 54 7 18 -188 213 -197 198 -4 -6 -35 13
-79 50 -360 304 -820 507 -1297 574 -109 15 -456 28 -530 19z m519 -339 c362
-53 723 -204 1017 -426 151 -114 160 -78 -71 -309 l-200 -200 -1216 0 c-1390
0 -1273 8 -1371 -90 -94 -95 -89 -29 -86 -1051 3 -877 3 -884 24 -930 28 -60
85 -116 148 -145 41 -19 68 -24 136 -24 l85 -1 -250 -245 -250 -245 -33 38
c-18 21 -74 99 -124 173 -233 348 -357 731 -374 1155 -48 1167 819 2177 1985
2311 142 16 434 11 580 -11z m1485 -905 c365 -507 504 -1147 381 -1753 -92
-453 -308 -845 -644 -1170 -562 -543 -1350 -748 -2119 -553 -303 78 -641 254
-879 459 l-52 45 97 83 c53 46 213 198 354 338 l257 254 603 -377 603 -377 3
391 2 390 478 0 477 0 51 24 c61 28 115 82 146 145 l23 46 3 883 c2 586 -1
896 -8 922 -15 55 -69 131 -113 159 l-38 25 118 119 118 118 42 -48 c24 -26
67 -81 97 -123z m-1074 -353 c0 -2 -364 -362 -809 -800 l-810 -797 -200 0
-201 0 0 800 0 800 1010 0 c556 0 1010 -1 1010 -3z m540 -797 l0 -800 -590 0
-590 0 0 -261 c0 -152 -4 -259 -9 -257 -5 2 -153 93 -330 203 l-320 200 857
858 857 857 62 0 63 0 0 -800z"/>
</g>
</svg>
